<?xml version="1.0" standalone="no"?>
<!DOCTYPE svg PUBLIC "-//W3C//DTD SVG 20010904//EN"
 "http://www.w3.org/TR/2001/REC-SVG-20010904/DTD/svg10.dtd">
<svg version="1.0" xmlns="http://www.w3.org/2000/svg"
 width="245.000000pt" height="245.000000pt" viewBox="0 0 245.000000 245.000000"
 preserveAspectRatio="xMidYMid meet">
<metadata>
Created by potrace 1.14, written by Peter Selinger 2001-2017
</metadata>
<g transform="translate(0.000000,245.000000) scale(0.100000,-0.100000)"
fill="#000000" stroke="none">
<path d="M1600 2397 c-19 -6 -57 -33 -84 -60 l-49 -49 -51 7 c-28 4 -94 9
-146 10 -98 4 -420 14 -615 20 -60 2 -157 6 -215 10 -95 6 -108 4 -137 -14
-41 -26 -82 -88 -90 -134 -6 -37 12 -97 28 -97 4 0 20 20 34 44 14 23 35 52
46 62 20 18 21 18 50 -16 15 -19 29 -30 29 -25 4 51 13 102 20 109 25 26 159
32 259 11 102 -21 124 -25 193 -30 35 -3 88 -9 118 -14 30 -5 85 -8 123 -7 37
2 70 0 72 -4 6 -9 -38 -56 -116 -125 -95 -86 -192 -205 -282 -347 -112 -178
-124 -202 -132 -271 -9 -69 -25 -75 -26 -9 -3 126 -8 407 -9 580 -2 185 -8
218 -32 194 -10 -10 -11 -184 -3 -477 12 -430 13 -648 4 -709 -9 -64 -9 -72
11 -98 27 -37 28 -45 35 -323 12 -481 24 -639 44 -582 3 9 7 107 9 219 2 111
8 210 12 219 9 15 35 17 267 15 238 -1 290 -6 279 -24 -5 -9 -15 -187 -18
-314 -1 -61 3 -102 10 -111 11 -13 34 -14 308 -6 34 0 66 4 73 8 20 12 -26 51
-62 52 -77 2 -121 23 -138 66 -14 38 1 68 75 140 34 35 107 126 161 203 54 78
102 143 107 146 4 3 8 -16 8 -43 1 -58 14 -166 35 -273 0 -3 12 -67 25 -143
20 -120 27 -140 45 -147 11 -4 91 -8 178 -7 162 0 187 6 173 42 -7 19 -37 31
-101 39 -76 9 -153 34 -175 58 -19 21 -24 46 -20 96 1 12 -3 37 -9 55 -14 44
-19 77 -26 183 -3 51 -8 102 -10 114 -2 13 -7 62 -10 109 -15 226 -25 248
-128 286 -26 10 -50 21 -52 26 -3 4 3 29 13 56 11 26 20 74 21 105 1 32 10 86
21 120 21 72 27 108 35 228 3 47 8 101 10 120 2 19 7 64 10 100 4 36 10 82 15
104 6 26 4 53 -6 87 -8 27 -13 53 -10 57 2 4 8 44 11 87 6 72 5 83 -14 107
-14 18 -21 41 -21 71 0 25 -3 53 -6 62 -16 40 -100 55 -174 32z m74 -194 c16
-9 15 -11 -11 -16 -27 -5 -62 -52 -48 -65 3 -3 33 -9 67 -14 67 -8 103 -35 94
-67 -3 -9 -8 -36 -11 -61 -3 -25 -8 -56 -10 -70 -2 -14 -7 -45 -10 -70 -3 -25
-10 -72 -15 -105 -6 -34 -12 -97 -15 -140 -3 -44 -8 -98 -11 -120 -8 -55 -56
-225 -64 -225 -10 0 -27 39 -50 115 -12 39 -39 129 -61 200 -81 258 -82 267
-65 415 3 30 8 77 11 103 6 57 36 104 77 121 34 15 95 14 122 -1z m-359 -415
c4 -24 9 -54 11 -68 23 -140 118 -425 173 -520 37 -63 54 -100 47 -100 -2 0
-24 9 -48 20 -50 22 -161 50 -223 56 -57 5 -235 41 -243 49 -12 12 27 134 113
352 84 213 107 253 145 253 14 0 20 -11 25 -42z m-534 -898 c81 -31 101 -31
170 -1 36 16 61 19 141 16 153 -6 163 -10 160 -65 -8 -152 -13 -195 -20 -202
-9 -9 -152 -15 -440 -21 -64 -2 -116 2 -119 7 -7 11 -2 276 6 294 3 7 34 -1
102 -28z m752 -121 c53 -41 67 -58 67 -82 0 -11 -53 -103 -119 -206 -65 -102
-140 -224 -166 -271 -26 -47 -50 -87 -53 -90 -4 -5 5 212 12 290 2 19 7 71 10
115 7 88 26 268 31 300 2 11 4 23 4 26 2 14 175 -52 214 -82z m-358 -188 c55
-1 66 -4 57 -13 -15 -15 -542 -22 -542 -8 0 12 206 26 340 23 41 0 106 -2 145
-2z"/>
</g>
</svg>
