<?xml version="1.0" encoding="utf-8"?>
<!-- Generator: Adobe Illustrator 23.0.3, SVG Export Plug-In . SVG Version: 6.00 Build 0)  -->
<svg version="1.1" id="Ebene_1" xmlns="http://www.w3.org/2000/svg" xmlns:xlink="http://www.w3.org/1999/xlink" x="0px" y="0px"
	 viewBox="0 0 214.2 56.7" style="enable-background:new 0 0 214.2 56.7;" xml:space="preserve">
<style type="text/css">
	.st0{fill-rule:evenodd;clip-rule:evenodd;fill:#4F669C;}
</style>
<g>
	<path class="st0" d="M37.3,41.5c-1.7,2.4-3.2,4.6-4.8,6.8c-0.9,1.1-2,2.2-3,3.1c-1,0.9-0.9,2.8,0.4,3.3c0.8,0.3,1.8,0.5,2.7,0.5
		c0.8,0,1.1,0.4,1.3,1.2c-0.2,0-0.4,0.1-0.6,0.1c-2.7,0.1-5.4,0.2-8.1,0.2c-0.4,0-0.7-0.2-0.7-0.6c-0.1-0.5-0.1-1-0.1-1.5
		c0.1-2.7,0.2-5.4,0.4-8.1c0-0.6-0.1-0.8-0.7-0.8c-1.1,0-2.1-0.1-3.2-0.1c-2.8,0-5.7,0-8.5,0c-0.6,0-0.8,0.2-0.9,0.8
		c0,0.4,0,0.8,0,1.2c-0.1,2.8-0.1,5.6-0.2,8.4c0,0.2-0.1,0.5-0.1,0.7c-0.1,0-0.2,0-0.2,0.1c-0.1-0.4-0.3-0.8-0.3-1.2
		c-0.2-4.3-0.4-8.6-0.6-13c-0.1-1.5,0-2.9,0-4.4c0-1.3,0.1-2.6-1-3.7c-0.2-0.2-0.2-0.6-0.2-0.9c0.6-3.7,0.5-7.4,0.3-11.2
		C8.9,16.6,8.9,10.9,8.8,5.3c0-0.4,0.1-0.8,0.2-1.2c0-0.1,0.3-0.2,0.4-0.2c0.1,0,0.3,0.2,0.3,0.3c0,0.4,0,0.7,0,1.1
		c0.1,5,0.1,10,0.2,15.1c0,1.4,0.1,2.8,0.2,4.2c0.1,0,0.1,0,0.2,0c0.1-0.8,0.3-1.6,0.4-2.4c0.1-1.2,0.6-2.3,1.3-3.3
		c1.2-1.9,2.4-3.8,3.6-5.7c0.8-1.3,2-2.4,3-3.6c1.3-1.6,3-2.6,4.3-4.1c0.3-0.3,0.5-0.6,0.8-1.1c-0.4,0-0.7,0-1,0
		c-1.9,0.2-3.8,0-5.7-0.4C16.8,4,16.7,4,16.6,4c-2.2,0-4.4-0.6-6.6-1C8.4,2.7,6.8,2.9,5.2,3.3c-0.2,0-0.4,0.3-0.5,0.5
		C4.7,4.5,4.6,5.3,4.5,6.1c-0.1,0-0.1,0-0.2,0.1c-0.4-0.5-0.7-1-1.1-1.6C2,5.3,1.6,6.7,0.7,7.7c-1-1.1-0.8-2.3-0.3-3.4
		c0.2-0.4,0.5-0.7,0.7-1.1C2,2,3.1,1.5,4.6,1.7c3,0.4,6.1,0.5,9.1,0.5c3,0,6,0.2,9,0.3c1.4,0.1,2.8,0,4.3,0.1c0.7,0,1.4,0.1,2.1,0.3
		c0.9,0.3,1.4,0,1.9-0.7c1-1.3,2.3-2,3.8-2.1c2-0.2,3.3,0.9,2.8,3c-0.1,0.2,0,0.6,0.2,0.8c0.7,0.6,0.9,1.3,0.8,2.1
		c-0.1,1.1-0.3,2.1-0.4,3.2c0,0.3,0,0.6,0.1,0.8c0.5,0.7,0.5,1.5,0.3,2.3c-0.6,3.7-0.8,7.4-1.1,11.1c-0.1,0.9-0.5,1.8-0.8,2.8
		c-0.2,0.7-0.3,1.5-0.3,2.3c0,1.4,0,1.4-1,3.8c0.2,0.1,0.4,0.3,0.6,0.4c0.3,0.1,0.6,0.2,0.9,0.3c1.8,0.6,2.7,1.7,2.8,3.7
		c0.1,2.7,0.4,5.4,0.7,8.1c0.2,1.7,0,3.6,0.8,5.2c0.1,0.3,0.1,0.7,0,1c-0.2,1.3,0.1,2.2,1.3,2.8c0.9,0.4,2,0.6,3,0.8
		c0.7,0.1,1.4,0.2,2.1,0.3c0.5,0.1,1,0.8,0.8,1.2c0,0.1-0.3,0.3-0.4,0.3c-0.4,0.1-0.8,0.1-1.2,0.1c-2,0-4.1,0-6.1,0
		c-1.2,0-1.1,0-1.3-1c-0.5-3-1.1-6-1.6-9c-0.2-1.3-0.2-2.5-0.4-3.8C37.5,42.3,37.4,42,37.3,41.5z M34.2,28c0.1,0,0.2,0,0.3,0
		c0.4-1.7,1-3.3,1.3-5c0.3-1.7,0.3-3.5,0.5-5.2c0.2-1.7,0.5-3.4,0.7-5c0.2-1.4,0.4-2.8,0.6-4.2c0.1-0.4-0.1-0.6-0.4-0.9
		c-0.9-0.6-1.8-0.4-2.7-0.5c-0.3,0-0.6-0.2-0.9-0.4c0.2-0.4,0.4-0.8,0.7-1.2c0.2-0.2,0.6-0.2,0.9-0.3c0.1,0,0.3-0.1,0.5-0.2
		c-1.1-0.5-1.6-0.5-2.9-0.4c-1.2,0.1-2.5,1.6-2.5,2.9c-0.1,1.7-0.3,3.3-0.5,5c0,0.7-0.1,1.4,0.1,2c0.4,1.7,1,3.4,1.5,5.1
		c0.6,2.1,1.3,4.2,2,6.3C33.4,26.8,33.9,27.4,34.2,28z M32.1,31.5c0-0.1,0.1-0.1,0.1-0.2c-0.2-0.4-0.4-0.7-0.5-1.1
		c-0.6-1-1.3-1.9-1.7-3c-0.9-2.4-1.8-4.9-2.5-7.4c-0.5-1.7-0.7-3.5-1-5.3c0-0.2-0.2-0.5-0.3-0.6c-0.4-0.2-1.6,0.4-1.8,0.9
		c-1.5,4.2-3.5,8.3-4.7,12.6c-0.3,1.1-0.2,1.3,1,1.4c1,0.2,2.1,0.4,3.1,0.6c0.4,0.1,0.8,0.2,1.1,0.2c2,0.1,3.9,0.6,5.8,1.3
		C31.2,31.2,31.7,31.3,32.1,31.5z M10.9,43.1c0.5,0,0.9,0,1.2,0c2.7-0.1,5.4-0.1,8.1-0.2c1.2,0,2.4-0.1,3.7-0.1c0.6,0,0.9-0.3,0.9-1
		c0-1.4,0.2-2.8,0.3-4.2c0.1-1-0.1-1.2-1-1.3c-1.5-0.2-3-0.3-4.5-0.3c-0.8,0-1.7,0.2-2.3,0.6c-1,0.7-1.9,0.5-2.9,0.1
		c-0.8-0.3-1.6-0.6-2.3-0.9c-0.8-0.3-1-0.2-1,0.7c0,0.5-0.1,1-0.1,1.5C10.9,39.7,10.9,41.3,10.9,43.1z M25.1,55.2
		c0.3-0.4,0.4-0.6,0.6-0.9c0.8-1.4,1.6-2.9,2.4-4.2c1.5-2.4,3.1-4.8,4.6-7.2c1.1-1.7,1.1-2-0.5-3.2c-0.5-0.4-1.1-0.9-1.7-1.2
		c-0.8-0.4-1.7-0.6-2.5-0.8c-0.5-0.1-0.9-0.3-1.4-0.5C26.3,37.9,24.9,53.8,25.1,55.2z M11.3,44.2c0,0.1,0,0.2,0,0.3
		c0.7,0.1,1.3,0.1,2,0.1c1.7,0,3.4,0,5.1,0c1.9,0,3.7-0.1,5.6-0.1c0.4,0,0.7,0,0.7-0.7C20.2,43.8,15.7,43.6,11.3,44.2z"/>
	<g>
		<path d="M54.6,33.1h2c2.8,0,4.3,1.8,4.3,4.5c0,4.2-2.6,4.6-4.1,4.6h-2.1V33.1z M57,40c1.1,0,1.3-1.4,1.3-2.3c0-1-0.2-2.4-1.3-2.4
			V40z"/>
		<path d="M67.5,42.2h-2.4l0.1-1l0,0c-0.3,0.7-0.9,1.2-1.6,1.2c-1.6,0-1.9-2.1-1.9-3.4c0-1.2,0.4-3.2,2-3.2c0.8,0,1.2,0.5,1.5,1.1
			l0,0l-0.1-1h2.4V42.2z M65,39.8c0.1-0.3,0.1-0.7,0.1-0.9c0-0.2,0-0.5,0-0.8c-0.1-0.3-0.2-0.5-0.5-0.5c-0.3,0-0.4,0.3-0.5,0.6
			C64,38.6,64,39,64,39.2c0,0.2,0,0.5,0.1,0.7c0.1,0.2,0.2,0.4,0.4,0.4C64.8,40.4,65,40.1,65,39.8z"/>
		<path d="M71.9,42.2c-0.2,0-0.4,0-0.6,0c-1.8,0-2.8-1.6-2.8-3.3c0-1.7,1.2-3.3,3-3.3c0.2,0,0.3,0,0.5,0v2.1c-0.7,0-1.1,0.5-1.1,1.2
			c0,0.5,0.3,1.2,0.9,1.2h0.2V42.2z"/>
		<path d="M76.4,42.2V39c0-0.5,0-0.9-0.4-0.9c-0.5,0-0.5,0.5-0.5,1.1v3h-2.4v-9.6h2.4l0,3.4c0,0.3,0,0.6,0,1l0,0
			c0.2-0.7,0.8-1.3,1.6-1.3c1.4,0,1.7,1.2,1.7,2.3v4.2H76.4z"/>
		<path d="M81.3,42.2l-1.8-6.3h2.4l0.5,2.7c0.1,0.4,0.1,0.9,0.2,1.4h0c0.1-0.4,0.1-0.9,0.2-1.4l0.5-2.7h2.3l-1.8,6.3H81.3z"/>
		<path d="M91.9,40c-0.3,1.5-1.4,2.3-2.8,2.3c-2,0-2.9-1.3-2.9-3.2c0-1.8,1-3.4,3-3.4c1,0,1.7,0.4,2.1,1c0.6,0.8,0.7,1.8,0.7,2.8
			h-3.5c0,0.4,0.1,1,0.6,1c0.3,0,0.5-0.2,0.5-0.4H91.9z M89.6,38.2c0-0.3-0.1-0.8-0.6-0.8c-0.4,0-0.5,0.5-0.5,0.8H89.6z"/>
		<path d="M96.9,38.3c-0.2-0.1-0.5-0.2-0.7-0.2c-0.9,0-1,0.8-1,1.5v2.6H93v-6.3h2.4L95.2,37l0,0c0.3-0.8,0.9-1.4,1.7-1.4V38.3z"/>
		<path d="M98,32.6h2.4v3.3l0,0.9l0,0c0.3-0.6,0.7-1,1.5-1c1.7,0,2,2.1,2,3.4c0,0.9-0.2,3.2-2,3.2c-0.7,0-1.1-0.4-1.4-1l0,0l0,0.8
			H98V32.6z M101.4,39c0-0.4,0-1.3-0.6-1.3c-0.5,0-0.5,1-0.5,1.3c0,0.4,0,1.3,0.6,1.3C101.4,40.3,101.4,39.3,101.4,39z"/>
		<path d="M110.4,42.2h-2.4l0.1-1l0,0c-0.3,0.7-0.9,1.2-1.6,1.2c-1.6,0-1.9-2.1-1.9-3.4c0-1.2,0.4-3.2,2-3.2c0.8,0,1.2,0.5,1.5,1.1
			l0,0l-0.1-1h2.4V42.2z M108,39.8c0.1-0.3,0.1-0.7,0.1-0.9c0-0.2,0-0.5,0-0.8c-0.1-0.3-0.2-0.5-0.5-0.5c-0.3,0-0.4,0.3-0.5,0.6
			c-0.1,0.3-0.1,0.7-0.1,0.9c0,0.2,0,0.5,0.1,0.7c0.1,0.2,0.2,0.4,0.4,0.4C107.8,40.4,107.9,40.1,108,39.8z"/>
		<path d="M114,37L114,37c0.3-0.7,0.9-1.3,1.6-1.3c1.4,0,1.7,1.2,1.7,2.3v4.2H115V39c0-0.5,0-0.9-0.4-0.9c-0.5,0-0.5,0.4-0.5,1.1v3
			h-2.4v-6.3h2.4L114,37z"/>
		<path d="M121.8,41.3L121.8,41.3c-0.3,0.6-0.7,1-1.5,1c-1.7,0-2-2-2-3.2c0-1.3,0.3-3.4,2-3.4c0.7,0,1.2,0.4,1.5,1l0,0
			c0-0.3,0-0.6,0-0.9v-3.3h2.4v9.6h-2.4L121.8,41.3z M121.9,38.9c0-0.6-0.1-1.3-0.5-1.3c-0.5,0-0.6,0.6-0.6,1.3
			c0,0.6,0.1,1.3,0.6,1.3C121.8,40.3,121.9,39.6,121.9,38.9z"/>
		<path d="M129.6,39.9c0.3,0.3,0.7,0.7,1.2,0.7c0.2,0,0.5-0.1,0.5-0.3s-0.2-0.4-0.6-0.5c-0.9-0.3-1.7-0.8-1.7-1.9
			c0-1.3,1.1-2.1,2.5-2.1c0.6,0,1.4,0.2,1.9,0.5l-0.8,1.7c-0.3-0.3-0.6-0.6-1-0.6c-0.2,0-0.3,0.1-0.3,0.3c0,0.3,0.5,0.5,0.7,0.6
			c0.9,0.3,1.5,0.8,1.5,1.8c0,1.4-1.2,2.2-2.5,2.2c-0.9,0-1.5-0.3-2.3-0.7L129.6,39.9z"/>
		<path d="M137.8,42.2c-0.2,0-0.4,0-0.6,0c-1.8,0-2.8-1.6-2.8-3.3c0-1.7,1.2-3.3,3-3.3c0.2,0,0.3,0,0.5,0v2.1
			c-0.7,0-1.1,0.5-1.1,1.2c0,0.5,0.3,1.2,0.9,1.2h0.2V42.2z"/>
		<path d="M142.2,42.2V39c0-0.5,0-0.9-0.4-0.9c-0.5,0-0.5,0.5-0.5,1.1v3H139v-9.6h2.4l0,3.4c0,0.3,0,0.6,0,1l0,0
			c0.2-0.7,0.8-1.3,1.6-1.3c1.4,0,1.7,1.2,1.7,2.3v4.2H142.2z"/>
		<path d="M150.5,42.2l-0.5-3.8h0l-0.7,3.8H147l-1.6-6.3h2.3l0.3,2.3c0.1,0.5,0.2,1,0.2,1.5h0c0.1-0.5,0.2-1,0.3-1.5l0.5-2.3h2
			l0.3,2.3c0.1,0.5,0.1,1,0.2,1.5h0c0.1-0.5,0.2-1,0.3-1.5l0.5-2.3h2.4l-1.8,6.3H150.5z"/>
		<path d="M160.9,40c-0.3,1.5-1.4,2.3-2.8,2.3c-2,0-2.9-1.3-2.9-3.2c0-1.8,1-3.4,3-3.4c1,0,1.7,0.4,2.1,1c0.6,0.8,0.7,1.8,0.7,2.8
			h-3.5c0,0.4,0.1,1,0.6,1c0.3,0,0.5-0.2,0.5-0.4H160.9z M158.7,38.2c0-0.3-0.1-0.8-0.6-0.8c-0.4,0-0.5,0.5-0.5,0.8H158.7z"/>
		<path d="M161.8,33.8c0-0.7,0.6-1.4,1.4-1.4c0.8,0,1.4,0.6,1.4,1.4c0,0.8-0.6,1.4-1.4,1.4C162.5,35.2,161.8,34.6,161.8,33.8z
			 M162,42.2v-6.3h2.4v6.3H162z"/>
		<path d="M165.3,42.2l2.1-4.5c-0.3,0-0.6,0-0.9,0h-0.9v-1.9h5.1l-2.1,4.4c0.3,0,0.5,0,0.8,0h1v1.9H165.3z"/>
		<path d="M177.1,40c-0.3,1.5-1.4,2.3-2.8,2.3c-2,0-2.9-1.3-2.9-3.2c0-1.8,1-3.4,3-3.4c1,0,1.7,0.4,2.1,1c0.6,0.8,0.7,1.8,0.7,2.8
			h-3.5c0,0.4,0.1,1,0.6,1c0.3,0,0.5-0.2,0.5-0.4H177.1z M174.8,38.2c0-0.3-0.1-0.8-0.6-0.8c-0.4,0-0.5,0.5-0.5,0.8H174.8z"/>
		<path d="M182.2,38.3c-0.2-0.1-0.5-0.2-0.7-0.2c-0.9,0-1,0.8-1,1.5v2.6h-2.4v-6.3h2.4l-0.1,1.2l0,0c0.3-0.8,0.9-1.4,1.7-1.4V38.3z"
			/>
		<path d="M183.1,33.8c0-0.7,0.6-1.4,1.4-1.4c0.8,0,1.4,0.6,1.4,1.4c0,0.8-0.6,1.4-1.4,1.4C183.7,35.2,183.1,34.6,183.1,33.8z
			 M183.3,42.2v-6.3h2.4v6.3H183.3z"/>
		<path d="M187.5,39.9c0.3,0.3,0.7,0.7,1.2,0.7c0.2,0,0.5-0.1,0.5-0.3s-0.2-0.4-0.6-0.5c-0.9-0.3-1.7-0.8-1.7-1.9
			c0-1.3,1.1-2.1,2.5-2.1c0.6,0,1.4,0.2,1.9,0.5l-0.8,1.7c-0.3-0.3-0.6-0.6-1-0.6c-0.2,0-0.3,0.1-0.3,0.3c0,0.3,0.5,0.5,0.7,0.6
			c0.9,0.3,1.5,0.8,1.5,1.8c0,1.4-1.2,2.2-2.5,2.2c-0.9,0-1.5-0.3-2.3-0.7L187.5,39.9z"/>
		<path d="M195.6,42.2c-0.2,0-0.4,0-0.6,0c-1.8,0-2.8-1.6-2.8-3.3c0-1.7,1.2-3.3,3-3.3c0.2,0,0.3,0,0.5,0v2.1
			c-0.7,0-1.1,0.5-1.1,1.2c0,0.5,0.3,1.2,0.9,1.2h0.2V42.2z"/>
		<path d="M200.1,42.2V39c0-0.5,0-0.9-0.4-0.9c-0.5,0-0.5,0.5-0.5,1.1v3h-2.4v-9.6h2.4l0,3.4c0,0.3,0,0.6,0,1l0,0
			c0.2-0.7,0.8-1.3,1.6-1.3c1.4,0,1.7,1.2,1.7,2.3v4.2H200.1z"/>
		<path d="M209.1,40c-0.3,1.5-1.4,2.3-2.8,2.3c-2,0-2.9-1.3-2.9-3.2c0-1.8,1-3.4,3-3.4c1,0,1.7,0.4,2.1,1c0.6,0.8,0.7,1.8,0.7,2.8
			h-3.5c0,0.4,0.1,1,0.6,1c0.3,0,0.5-0.2,0.5-0.4H209.1z M206.9,38.2c0-0.3-0.1-0.8-0.6-0.8c-0.4,0-0.5,0.5-0.5,0.8H206.9z"/>
		<path d="M214.2,38.3c-0.2-0.1-0.5-0.2-0.7-0.2c-0.9,0-1,0.8-1,1.5v2.6h-2.4v-6.3h2.4l-0.1,1.2l0,0c0.3-0.8,0.9-1.4,1.7-1.4V38.3z"
			/>
		<path d="M54.6,56.6v-9h2.2c2.1,0,3.8,0.7,3.8,3.1c0,2.4-1.4,3.1-3.6,3v3H54.6z M57.2,49.5l-0.2,0v2.1c0.7,0,1.1-0.3,1.1-1
			C58.1,50,57.8,49.5,57.2,49.5z"/>
		<path d="M67,56.6h-2.4l0.1-1l0,0c-0.3,0.7-0.9,1.2-1.6,1.2c-1.6,0-1.9-2.1-1.9-3.4c0-1.2,0.4-3.2,2-3.2c0.8,0,1.2,0.5,1.5,1.1l0,0
			l-0.1-1H67V56.6z M64.6,54.2c0.1-0.3,0.1-0.7,0.1-0.9c0-0.2,0-0.5,0-0.8c-0.1-0.3-0.2-0.5-0.5-0.5c-0.3,0-0.4,0.3-0.5,0.6
			c-0.1,0.3-0.1,0.7-0.1,0.9c0,0.2,0,0.5,0.1,0.7c0.1,0.2,0.2,0.4,0.4,0.4C64.4,54.8,64.5,54.5,64.6,54.2z"/>
		<path d="M68.8,56.6v-4.4h-0.7v-1.9h0.7v-1.9h2.4v1.9H72v1.9h-0.8v4.4H68.8z"/>
		<path d="M72.8,48.2c0-0.7,0.6-1.4,1.4-1.4c0.8,0,1.4,0.6,1.4,1.4c0,0.8-0.6,1.4-1.4,1.4C73.5,49.6,72.8,49,72.8,48.2z M73,56.6
			v-6.3h2.4v6.3H73z"/>
		<path d="M82.1,54.4c-0.3,1.5-1.4,2.3-2.8,2.3c-2,0-2.9-1.3-2.9-3.2c0-1.8,1-3.4,3-3.4c1,0,1.7,0.4,2.1,1c0.6,0.8,0.7,1.8,0.7,2.8
			h-3.5c0,0.4,0.1,1,0.6,1c0.3,0,0.5-0.2,0.5-0.4H82.1z M79.8,52.6c0-0.3-0.1-0.8-0.6-0.8c-0.4,0-0.5,0.5-0.5,0.8H79.8z"/>
		<path d="M85.5,51.4L85.5,51.4c0.3-0.7,0.9-1.3,1.6-1.3c1.4,0,1.7,1.2,1.7,2.3v4.2h-2.4v-3.2c0-0.5,0-0.9-0.4-0.9
			c-0.5,0-0.5,0.4-0.5,1.1v3h-2.4v-6.3h2.4L85.5,51.4z"/>
		<path d="M90.6,56.6v-4.4h-0.7v-1.9h0.7v-1.9H93v1.9h0.8v1.9H93v4.4H90.6z"/>
		<path d="M100.2,54.4c-0.3,1.5-1.4,2.3-2.8,2.3c-2,0-2.9-1.3-2.9-3.2c0-1.8,1-3.4,3-3.4c1,0,1.7,0.4,2.1,1c0.6,0.8,0.7,1.8,0.7,2.8
			h-3.5c0,0.4,0.1,1,0.6,1c0.3,0,0.5-0.2,0.5-0.4H100.2z M98,52.6c0-0.3-0.1-0.8-0.6-0.8c-0.4,0-0.5,0.5-0.5,0.8H98z"/>
		<path d="M103.6,51.4L103.6,51.4c0.3-0.7,0.9-1.3,1.6-1.3c1.4,0,1.7,1.2,1.7,2.3v4.2h-2.4v-3.2c0-0.5,0-0.9-0.4-0.9
			c-0.5,0-0.5,0.4-0.5,1.1v3h-2.4v-6.3h2.4L103.6,51.4z"/>
		<path d="M108.8,54.3c0.3,0.3,0.7,0.7,1.2,0.7c0.2,0,0.5-0.1,0.5-0.3s-0.2-0.4-0.6-0.5c-0.9-0.3-1.7-0.8-1.7-1.9
			c0-1.3,1.1-2.1,2.5-2.1c0.6,0,1.4,0.2,1.9,0.5l-0.8,1.7c-0.3-0.3-0.6-0.6-1-0.6c-0.2,0-0.3,0.1-0.3,0.3c0,0.3,0.5,0.5,0.7,0.6
			c0.9,0.3,1.5,0.8,1.5,1.8c0,1.4-1.2,2.2-2.5,2.2c-0.9,0-1.5-0.3-2.3-0.7L108.8,54.3z"/>
		<path d="M114.3,56.6v-4.4h-0.7v-1.9h0.7v-1.9h2.4v1.9h0.8v1.9h-0.8v4.4H114.3z"/>
		<path d="M123.9,54.4c-0.3,1.5-1.4,2.3-2.8,2.3c-2,0-2.9-1.3-2.9-3.2c0-1.8,1-3.4,3-3.4c1,0,1.7,0.4,2.1,1c0.6,0.8,0.7,1.8,0.7,2.8
			h-3.5c0,0.4,0.1,1,0.6,1c0.3,0,0.5-0.2,0.5-0.4H123.9z M121.6,52.6c0-0.3-0.1-0.8-0.6-0.8c-0.4,0-0.5,0.5-0.5,0.8H121.6z"/>
		<path d="M125,56.6V47h2.4v9.6H125z"/>
		<path d="M128.6,56.6V47h2.4v9.6H128.6z"/>
		<path d="M137.7,54.4c-0.3,1.5-1.4,2.3-2.8,2.3c-2,0-2.9-1.3-2.9-3.2c0-1.8,1-3.4,3-3.4c1,0,1.7,0.4,2.1,1c0.6,0.8,0.7,1.8,0.7,2.8
			h-3.5c0,0.4,0.1,1,0.6,1c0.3,0,0.5-0.2,0.5-0.4H137.7z M135.4,52.6c0-0.3-0.1-0.8-0.6-0.8c-0.4,0-0.5,0.5-0.5,0.8H135.4z"/>
		<path d="M141.1,51.4L141.1,51.4c0.3-0.7,0.9-1.3,1.6-1.3c1.4,0,1.7,1.2,1.7,2.3v4.2H142v-3.2c0-0.5,0-0.9-0.4-0.9
			c-0.5,0-0.5,0.4-0.5,1.1v3h-2.4v-6.3h2.4L141.1,51.4z"/>
	</g>
</g>
</svg>
